<?xml version="1.0" standalone="no"?><!DOCTYPE svg PUBLIC "-//W3C//DTD SVG 1.1//EN" "http://www.w3.org/Graphics/SVG/1.1/DTD/svg11.dtd"><svg t="1643603738060" class="icon" viewBox="0 0 1024 1024" version="1.1" xmlns="http://www.w3.org/2000/svg" p-id="6397" xmlns:xlink="http://www.w3.org/1999/xlink" width="200" height="200"><defs><style type="text/css"></style></defs><path d="M274.054703 910.570601c-73.493851 42.436508-133.629463 7.721869-133.633557-77.145008l-0.031722-645.47699c-0.004093-84.865853 60.127426-119.58765599 133.626393-77.157288l559.015804 322.71189c73.498968 42.429345 73.502038 111.865787 0.007163 154.302295L274.054703 910.570601z" fill="#3ec3eb" p-id="6398" data-spm-anchor-id="a313x.7781069.0.i23" class="selected"></path><path d="M214.683501 961.127044c-63.818491 0-106.696044-51.320852-106.696044-127.70042701l-0.031723-645.47801399c0-36.582173 9.598612-67.89739 27.799136-90.548272 34.039257-42.419112 95.133707-48.98464401 154.485467-14.699794L849.25614 405.41140299c45.333488 26.166963 71.341838 64.523549 71.341839 105.23169301s-25.993001 79.071893-71.341839 105.255229L290.270013 938.665473c-25.802666 14.905478-51.241035 22.461571-75.586512 22.461571z m-0.031723-836.006372c-12.085246 0-21.335934 4.221138-28.30567299 12.901845-8.71140601 10.850116-13.511735 28.582989-13.51173501 49.918923l0.031723 645.48517699c0 18.88920901 4.070712 62.820768 41.817408 62.82076701 12.62452901 0 27.545356-4.759397 43.147705-13.764491l558.985105-322.76612501c24.726148-14.279215 38.902008-32.162514 38.902008-49.07162499 0-16.90092501-14.176884-34.776038-38.902008-49.04809L257.798461 138.885164c-15.601326-9.005095-30.523177-13.764492-43.146683-13.764492z" fill="#22abdc" p-id="6399" data-spm-anchor-id="a313x.7781069.0.i24" class=""></path><path d="M288.179398 807.592228c-5.40101001 0-10.691503-2.700505-13.764491-7.626701-4.752234-7.594979-2.439562-17.597797 5.148253-22.35003l159.094438-99.43364c7.603165-4.752234 17.61417-2.431376 22.350031 5.163603 4.752234 7.594979 2.439562 17.597797-5.148254 22.35003l-159.094438 99.43364a16.173354 16.173354 0 0 1-8.585539 2.463098z" fill="#ffffff" p-id="6400"></path><path d="M494.492254 679.29009699c-5.148253 0-10.200316-2.431376-13.353122-6.97690099-5.100158-7.365758-3.263323-17.470907 4.102434-22.572088l26.674523-18.49319c7.317663-5.123694 17.455557-3.28686 22.572088 4.087085 5.100158 7.365758 3.263323 17.470907-4.102435 22.57208799l-26.674522 18.49319001a16.084327 16.084327 0 0 1-9.218966 2.88981599z" fill="#ffffff" p-id="6401"></path></svg>