<?xml version="1.0" encoding="utf-8"?>
<!-- Generator: Adobe Illustrator 25.4.1, SVG Export Plug-In . SVG Version: 6.00 Build 0)  -->
<svg version="1.1" id="图层_1" xmlns="http://www.w3.org/2000/svg" xmlns:xlink="http://www.w3.org/1999/xlink" x="0px" y="0px"
	 viewBox="0 0 200 200" style="enable-background:new 0 0 200 200;" xml:space="preserve">
<style type="text/css">
	.st0{fill:#F1903A;}
	.st1{fill:#DA2416;}
	.st2{fill:#FFFFFF;}
</style>
<path class="st0" d="M112.1,59c0,21.6,17.5,39.1,39.1,39.1s39.1-17.5,39.1-39.1c0-21.6-17.5-39.1-39.1-39.1
	C129.6,19.9,112.1,37.4,112.1,59C112.1,58.9,112.1,59,112.1,59L112.1,59z"/>
<path class="st1" d="M180.6,137.9c0,2.6-2.1,4.7-4.7,4.7h-28.5c-2.6,0-4.7,2.1-4.7,4.8c0,2.6,2.1,4.7,4.7,4.7h9.5
	c2.6,0,4.7,2.1,4.7,4.8c0,2.6-2.1,4.7-4.7,4.7h-12.6c-31.7,27.4-79.7,23.9-107.1-7.8C18.7,132.4,13.6,102.6,24,76.3h-9.5
	c-2.6-0.1-4.6-2.3-4.5-5c0.1-2.5,2.1-4.4,4.5-4.5h19c2.6,0,4.7-2.1,4.7-4.7c0-2.1-1.4-4-3.4-4.6l0.2-0.2H24c-2.6,0.1-4.8-1.9-5-4.5
	c-0.1-2.6,1.9-4.8,4.5-5c0.1,0,0.3,0,0.4,0h19.8C75,19.7,123,22.2,151.1,53.4c19.6,21.7,24.9,52.8,13.8,79.8h11
	C178.5,133.2,180.6,135.3,180.6,137.9L180.6,137.9z"/>
<g>
	<path class="st2" d="M77,75.1h56.9c2.3,0,4.1-1.8,4.1-3.9v-9.8c0-2.2-1.9-3.9-4.1-3.9H77c-16.8-0.1-30.4,13.2-30.5,29.5v55.2
		c0,2.2,1.9,3.9,4.1,3.9h59.9c15.1,0,27.4-11.9,27.4-26.6V96.8c0-2.2-1.9-3.9-4.1-3.9H87.2c-2.3,0-4.1,1.8-4.1,3.9v9.8
		c0,2.2,1.9,3.9,4.1,3.9h28.4c2.3,0,4.1,1.8,4.1,3.9v2c0,6.6-5.5,11.8-12.2,11.8H68.9c-2.3,0-4.1-1.8-4.1-3.9V86.9
		C64.8,80.4,70.3,75.1,77,75.1z"/>
</g>
</svg>
