<?xml version="1.0" encoding="utf-8"?>
<!-- Generator: Adobe Illustrator 25.4.1, SVG Export Plug-In . SVG Version: 6.00 Build 0)  -->
<svg version="1.1" id="图层_1" xmlns="http://www.w3.org/2000/svg" xmlns:xlink="http://www.w3.org/1999/xlink" x="0px" y="0px"
	 viewBox="0 0 200 200" style="enable-background:new 0 0 200 200;" xml:space="preserve">
<style type="text/css">
	.st0{fill:#8CBAE4;}
	.st1{fill:#BDC7E6;}
	.st2{fill:#767676;}
</style>
<path class="st0" d="M112.1,59c0,21.6,17.5,39.1,39.1,39.1s39.1-17.5,39.1-39.1c0-21.6-17.5-39.1-39.1-39.1
	C129.6,19.9,112.1,37.4,112.1,59C112.1,58.9,112.1,59,112.1,59L112.1,59z"/>
<path class="st1" d="M180.6,137.9c0,2.6-2.1,4.7-4.7,4.7h-28.5c-2.6,0-4.7,2.1-4.7,4.8c0,2.6,2.1,4.7,4.7,4.7h9.5
	c2.6,0,4.7,2.1,4.7,4.8c0,2.6-2.1,4.7-4.7,4.7h-12.6c-31.7,27.4-79.7,23.9-107.1-7.8C18.7,132.4,13.6,102.6,24,76.3h-9.5
	c-2.6-0.1-4.6-2.3-4.5-5c0.1-2.5,2.1-4.4,4.5-4.5h19c2.6,0,4.7-2.1,4.7-4.7c0-2.1-1.4-4-3.4-4.6l0.2-0.2H24c-2.6,0.1-4.8-1.9-5-4.5
	c-0.1-2.6,1.9-4.8,4.5-5c0.1,0,0.3,0,0.4,0h19.8C75,19.7,123,22.2,151.1,53.4c19.6,21.7,24.9,52.8,13.8,79.8h11
	C178.5,133.2,180.6,135.3,180.6,137.9L180.6,137.9z"/>
<g>
	<path class="st2" d="M110.3,164.6c-1.6,0-2.6-1.1-2.6-2.7v-19c0.3-4.3-1-8-3.6-11c-0.8-0.8-1-1.9-0.5-2.7c0.3-1.1,1.3-1.6,2.1-1.9
		c14-1.6,28.3-6.7,28.3-31.6c0-6.2-2.3-12.1-6.5-16.6c-0.8-0.8-0.8-1.9-0.5-2.7c1.8-4.8,1.8-10.2,0.3-15c-2.1,0.3-7,1.1-15.3,7
		c-0.5,0.5-1.3,0.5-2.1,0.3c-10.4-2.9-21.6-2.9-31.9,0c-0.8,0.3-1.6,0-2.1-0.3c-8.3-5.6-13.2-6.7-15.3-7c-1.6,4.8-1.6,10.2,0.3,15
		c0.3,1.1,0.3,2.1-0.5,2.7c-4.2,4.6-6.5,10.4-6.5,16.6c0,24.6,14.3,30,28.3,31.6c1,0,1.8,0.8,2.1,1.9c0.3,1.1,0,2.1-0.5,2.7
		c-2.6,2.9-3.9,6.7-3.6,10.7v19c0,1.6-1,2.7-2.6,2.7c-1.6,0-2.6-1.1-2.6-2.7v-11.3c-15.1,3.5-20.8-4.3-25.2-9.9
		c-2.1-2.7-3.9-5.1-6.2-5.6c-1.3-0.3-2.3-1.9-1.8-3.2c0.3-1.3,1.8-2.4,3.1-1.9c4.2,1.1,6.5,4.3,9.1,7.5c4.4,5.6,8.3,11,21,7.8v-2.1
		c-0.3-3.8,0.5-7.5,2.3-10.7c-13.2-2.4-28.6-9.9-28.6-36.4c0-7,2.3-13.9,6.8-19.3c-2.1-5.9-1.8-12.6,0.8-18.8c0.3-0.5,1-1.1,1.6-1.3
		c1-0.3,7.3-1.6,19.7,7c10.6-2.7,21.8-2.7,32.5,0c12.7-8.6,18.7-7.2,19.7-7c0.8,0.3,1.3,0.8,1.6,1.6c2.6,6.2,2.9,12.6,1,19
		c4.4,5.4,6.8,12.1,6.8,19c0,26.8-15.3,34-28.6,36.4c1.8,3.2,2.6,7.2,2.3,11v18.8C112.9,163.6,111.9,164.6,110.3,164.6L110.3,164.6z
		"/>
</g>
</svg>
