<?xml version="1.0" encoding="utf-8"?>
<!-- Generator: Adobe Illustrator 25.4.1, SVG Export Plug-In . SVG Version: 6.00 Build 0)  -->
<svg version="1.1" id="图层_1" xmlns="http://www.w3.org/2000/svg" xmlns:xlink="http://www.w3.org/1999/xlink" x="0px" y="0px"
	 viewBox="0 0 200 200" style="enable-background:new 0 0 200 200;" xml:space="preserve">
<style type="text/css">
	.st0{fill:#96D5F0;}
	.st1{fill:#66AFE1;}
	.st2{fill:#ECF7FD;fill-opacity:1.000000e-02;}
	.st3{fill:#ECF7FD;}
</style>
<path class="st0" d="M112.1,59c0,21.6,17.5,39.1,39.1,39.1s39.1-17.5,39.1-39.1s-17.5-39.1-39.1-39.1
	C129.6,19.9,112.1,37.4,112.1,59C112.1,58.9,112.1,59,112.1,59L112.1,59z"/>
<path class="st1" d="M180.6,137.9c0,2.6-2.1,4.7-4.7,4.7h-28.5c-2.6,0-4.7,2.1-4.7,4.8c0,2.6,2.1,4.7,4.7,4.7h9.5
	c2.6,0,4.7,2.1,4.7,4.8c0,2.6-2.1,4.7-4.7,4.7h-12.6c-31.7,27.4-79.7,23.9-107.1-7.8C18.7,132.4,13.6,102.6,24,76.3h-9.5
	c-2.6-0.1-4.6-2.3-4.5-5c0.1-2.5,2.1-4.4,4.5-4.5h19c2.6,0,4.7-2.1,4.7-4.7c0-2.1-1.4-4-3.4-4.6l0.2-0.2H24c-2.6,0.1-4.8-1.9-5-4.5
	c-0.1-2.6,1.9-4.8,4.5-5c0.1,0,0.3,0,0.4,0h19.8C75,19.7,123,22.2,151.1,53.4c19.6,21.7,24.9,52.8,13.8,79.8h11
	C178.5,133.2,180.6,135.3,180.6,137.9L180.6,137.9z"/>
<g>
	<path class="st2" d="M33.3,43.8h120.6v120.7H33.3V43.8z"/>
	<path class="st3" d="M45.9,133.7c4.8,2.7,39.9,22.9,64.9,7.3c24.9-15.6,23.6-42.5,23.6-54.8c2.3-4.7,7-7.1,7-20
		c-4.7,4.3-9.3,5.8-14,4.4c-4.5-6.9-10.8-10-18.7-9.2c-11.9,1.2-16.3,12.9-15,28.1c-18.4,9.3-32.8-6.7-40.2-18.9
		c-2.5,9.5-4.9,21,0,33.7c3.3,8.5,11.1,15.6,23.4,21.4C64.3,132.7,54,135.3,45.9,133.7z"/>
</g>
</svg>
