<?xml version="1.0" standalone="no"?><!DOCTYPE svg PUBLIC "-//W3C//DTD SVG 1.1//EN" "http://www.w3.org/Graphics/SVG/1.1/DTD/svg11.dtd"><svg t="1643635568930" class="icon" viewBox="0 0 1024 1024" version="1.1" xmlns="http://www.w3.org/2000/svg" p-id="39093" xmlns:xlink="http://www.w3.org/1999/xlink" width="200" height="200"><defs><style type="text/css"></style></defs><path d="M576.8 672.4s-28.8-16.8-35-39.7c-6.2-22.9 84.2-66.8 84.2-66.8-19.2 5.8-79.6 11.5-97.7-16.4-21.3-33 58.9-74.6 77.7-87.6 0 0-42.7 25.9-60.4 5.9-17.7-20 23.5-38.4 23.5-38.4-53.7-0.2 12.9-92.4 18.4-99.9-5.5 5.8-57.9 54.6-83 63.9-27.2 10.1-30.8-33-30.8-33s-30.6 65.8-58.3 49.2c-39.3-23.5 27.2-115.1 27.2-115.1-6.2 5.7-32.2 36.5-49.7 26.4-28.4-16.4 8.7-58.9 8.7-58.9-8.3 7.5-21 13.3-31.4 6.3-12.5-8.5-11.7-83-11.7-83s-17.3 69.4-32.9 77.3c-9.5 4.8-23.5-4.6-28.8-13.1 0 0 24.9 49.6-6.9 59.1-19.6 5.9-38.2-32.7-41.4-36.7 0 0 40.7 103.7-3.5 117.8-31.2 10-43.8-60.8-43.8-60.8s-14.7 41-38.5 25.2c-21.9-14.6-59.9-73.4-63.9-80.5 3.5 8.8 43.9 112.8-8.1 101 0 0 35.2 27.1 12.9 42.5-22.4 15.5-57.1-19.2-57.1-19.2 14.9 16.9 81.9 75.2 52.6 102.4-24.7 23.1-83.2 1-99.1-5.9 0 0 76.3 62.8 64.3 83.7-12 20.8-44.3 30.7-44.3 30.7s94.8-17.1 105.7 12C136.6 650 79.1 679.6 79.1 679.6s56.8-7.4 95.8-7.6c53.7-0.3 82.9-7.2 100.9-17.9 12.6-9.8 21.8-38.3 22.4-84.7 0.6-49.9-16.1-91.7-16.1-91.7 16.9 34.9 30 50.2 33.6 78.6 7.4 58.9-15.4 97.6-15.4 97.6-1.8 5.8-3.8 11.4-6.2 17-8 18.7-20.7 38.1-32.2 55.8-13.1 20-32.2 37.6-49.8 55.4-3.1 3.2 6.6 10.5 9.6 11.5 6.5 2.2 11.9 0.2 17.2-1.3 5.3-1.5 12.4-2 14.8-7 2-4.3-0.9-11.6 0.8-16.5 4.7-13.1 14.5-24.2 21.2-36.1 12.7-22.4 24.1-45.9 30.9-71.4 15 14.4 47.8 31.7 103.3 38 38.7 4.4 94.2 30.5 94.2 30.5s-51.4-43.3-33.2-69.1c18.4-26.2 105.9 11.7 105.9 11.7zM969.2 535s-15.8-14.7-16.5-30c-0.7-15.3 62.5-30.4 62.5-30.4-13 0.9-51.9-3.9-59.4-24.1-8.8-23.8 47.7-38.8 61.4-44.4 0 0-30.6 10.4-39-4.8-8.4-15.1 20.3-20.9 20.3-20.9-33.9-7.7 21.1-56.5 25.6-60.5-4.3 2.9-44.2 26.4-61.4 28.7-18.6 2.5-14.8-25.2-14.8-25.2s-28.6 37.3-43.7 22.9c-21.5-20.4 33.3-68.9 33.3-68.9-4.7 2.7-25.5 18.5-35.1 9.7-15.6-14.3 13.8-36 13.8-36-6.3 3.6-15.1 5.5-20.7-0.4-6.7-7.1 4.3-54.1 4.3-54.1S879.1 238 868.1 240.8c-6.7 1.7-14.2-6.2-16.3-12.3 0 0 8.8 34.8-12.6 36.3-13.2 1-19.5-26-21-29 0 0 11.1 71.2-18.8 73.9-21.1 1.9-19.1-44.5-19.1-44.5s-15 23.9-27.8 10.5c-11.8-12.3-27.6-54.8-29.1-59.8 1 6.1 11.9 77.4-19.3 62.7 0 0 18.4 22 2.2 28.7-16.3 6.7-33.4-20.1-33.4-20.1 7 12.7 41.2 59 18.9 72.1-18.9 11.1-52.7-11-61.8-17.7 0 0 39.4 50.4 28.9 61.9s-32.3 13.2-32.3 13.2 62.3 2.5 65.1 22.4c2.8 20-37.7 30.6-37.7 30.6s36.9 3.3 61.6 8.7c34 7.3 53.4 7.1 66.2 2.9 9.3-4.4 19.2-21.1 26-50.3 7.4-31.4 2.7-60.2 2.7-60.2 5.7 24.4 11.9 35.9 10.2 54.3-3.6 38.3-23.5 59.5-23.5 59.5-2 3.4-4 6.7-6.3 9.8-7.7 10.7-18.4 21.2-28.1 30.7-11.1 10.8-25.6 19.3-39.3 28-2.4 1.6 2.7 7.5 4.5 8.6 3.8 2.3 7.5 1.8 11 1.6 3.6-0.2 8.1 0.5 10.3-2.4 1.9-2.4 1-7.4 2.8-10.3 4.8-7.6 12.5-13.3 18.5-19.8 11.2-12.3 21.7-25.6 29.6-40.8 7.4 11.2 25.8 26.8 59.9 38.5 23.8 8.2 55.2 32.5 55.2 32.5s-26.4-34.6-11.3-48.3c15.3-13.9 65.2 22.3 65.2 22.3z" fill="#F8B134" p-id="39094"></path></svg>