<?xml version="1.0" encoding="utf-8"?>
<!-- Generator: Adobe Illustrator 25.4.1, SVG Export Plug-In . SVG Version: 6.00 Build 0)  -->
<svg version="1.1" id="图层_1" xmlns="http://www.w3.org/2000/svg" xmlns:xlink="http://www.w3.org/1999/xlink" x="0px" y="0px"
	 viewBox="0 0 200 200" style="enable-background:new 0 0 200 200;" xml:space="preserve">
<style type="text/css">
	.st0{fill:#F7F295;}
	.st1{fill:#F7BD60;}
	.st2{fill:#F7FBF8;}
</style>
<path class="st0" d="M112.1,59c0,21.6,17.5,39.1,39.1,39.1s39.1-17.5,39.1-39.1c0-21.6-17.5-39.1-39.1-39.1
	C129.6,19.9,112.1,37.4,112.1,59C112.1,58.9,112.1,59,112.1,59L112.1,59z"/>
<path class="st1" d="M180.6,137.9c0,2.6-2.1,4.7-4.7,4.7h-28.5c-2.6,0-4.7,2.1-4.7,4.8c0,2.6,2.1,4.7,4.7,4.7h9.5
	c2.6,0,4.7,2.1,4.7,4.8c0,2.6-2.1,4.7-4.7,4.7h-12.6c-31.7,27.4-79.7,23.9-107.1-7.8C18.7,132.4,13.6,102.6,24,76.3h-9.5
	c-2.6-0.1-4.6-2.3-4.5-5c0.1-2.5,2.1-4.4,4.5-4.5h19c2.6,0,4.7-2.1,4.7-4.7c0-2.1-1.4-4-3.4-4.6l0.2-0.2H24c-2.6,0.1-4.8-1.9-5-4.5
	c-0.1-2.6,1.9-4.8,4.5-5c0.1,0,0.3,0,0.4,0h19.8C75,19.7,123,22.2,151.1,53.4c19.6,21.7,24.9,52.8,13.8,79.8h11
	C178.5,133.2,180.6,135.3,180.6,137.9L180.6,137.9z"/>
<g>
	<path class="st2" d="M53.7,74.9l-5.9,47.8l89,10.9l5.9-47.8L53.7,74.9z M54.5,68.5l89,10.9c4.5,0.5,7.7,3.8,7.3,7.4l-5.9,47.8
		c-0.4,3.5-4.4,5.9-8.9,5.4L47,129c-4.5-0.5-7.7-3.8-7.3-7.4l5.9-47.8C46,70.3,50,67.9,54.5,68.5z"/>
	<path class="st2" d="M130.1,84.2l-63.8-7.8l29.1,27.1L130.1,84.2z M53.3,73.9c-1.5-1.4-1.4-3.4,0.3-4.5c0.8-0.6,2-0.8,3.1-0.7
		l84.5,10.4c2.2,0.3,3.9,1.9,3.7,3.7c-0.1,0.9-0.7,1.7-1.6,2.2l-43,23.9c-3.4,1.9-8.2,1.3-11-1.3L53.3,73.9L53.3,73.9z"/>
</g>
</svg>
