<?xml version="1.0" standalone="no"?><!DOCTYPE svg PUBLIC "-//W3C//DTD SVG 1.1//EN" "http://www.w3.org/Graphics/SVG/1.1/DTD/svg11.dtd"><svg t="1643555964244" class="icon" viewBox="0 0 1024 1024" version="1.1" xmlns="http://www.w3.org/2000/svg" p-id="4870" xmlns:xlink="http://www.w3.org/1999/xlink" width="200" height="200"><defs><style type="text/css"></style></defs><path d="M512 512m-481.882353 0a481.882353 481.882353 0 1 0 963.764706 0 481.882353 481.882353 0 1 0-963.764706 0Z" fill="#4FACFE" p-id="4871"></path><path d="M820.404706 552.96l-69.270588-18.672941 24.094117-13.854118a31.352471 31.352471 0 1 0-30.479059-54.814117l-79.691294 46.08-56.259764-15.661177a21.323294 21.323294 0 0 1-9.487059-35.84l42.706823-42.767059h89.47953a32.256 32.256 0 0 0 32.557176-28.009412 31.593412 31.593412 0 0 0-31.201882-34.635294H704.752941l49.152-49.091764a32.376471 32.376471 0 0 0 2.379294-44.272942 31.442824 31.442824 0 0 0-45.417411-1.505882l-51.531295 51.501177v-27.708236a32.376471 32.376471 0 0 0-28.129882-32.527059 31.744 31.744 0 0 0-34.575059 31.322353v91.557647l-41.652706 41.86353a21.624471 21.624471 0 0 1-35.96047-9.637647l-15.600941-57.825883 44.423529-77.101176a32.346353 32.346353 0 0 0-9.035294-43.369412 31.533176 31.533176 0 0 0-44.393412 10.541177l-14.245647 24.395294-17.287529-67.46353a32.617412 32.617412 0 0 0-35.930353-24.094117 31.111529 31.111529 0 0 0-25.088 38.851764l19.004235 70.174118-24.756706-14.155294a31.834353 31.834353 0 0 0-39.664941 5.722353 31.442824 31.442824 0 0 0 7.800471 48.188235l79.661176 45.778824 15.239529 56.621176a21.263059 21.263059 0 0 1-26.081882 26.202353l-58.277647-15.661176-45.176471-77.101177a31.683765 31.683765 0 0 0-40.688941-13.854117 31.171765 31.171765 0 0 0-14.245647 43.971764l14.245647 24.395294-68.818823-18.371764a31.412706 31.412706 0 0 0-38.972236 24.997647 31.924706 31.924706 0 0 0 23.732706 35.84l68.788706 18.672941-24.094117 13.854118a32.647529 32.647529 0 0 0-13.552942 42.465882 31.804235 31.804235 0 0 0 43.369412 12.950588l79.631059-46.08 56.621176 15.058824a21.564235 21.564235 0 0 1 9.487059 36.141176l-42.706823 42.465883H292.924235a32.527059 32.527059 0 0 0-32.557176 28.009411 31.593412 31.593412 0 0 0 31.201882 34.635294h28.129883l-49.152 49.091765a32.105412 32.105412 0 0 0 0 46.381177 31.623529 31.623529 0 0 0 21.082352 8.131764 31.021176 31.021176 0 0 0 22.046118-9.035294l51.501177-51.501176v27.708235a32.406588 32.406588 0 0 0 28.129882 32.527059 31.503059 31.503059 0 0 0 34.575059-31.021177v-91.858823l41.712941-41.562353a21.383529 21.383529 0 0 1 35.900235 9.33647l15.600941 58.428236-44.754823 77.402353a31.834353 31.834353 0 0 0 8.131765 41.863529 30.539294 30.539294 0 0 0 18.311529 6.324706 31.352471 31.352471 0 0 0 27.105882-15.661176l14.245647-24.395295 18.31153 68.668236a31.201882 31.201882 0 1 0 59.994353-17.167059l-18.281412-68.668235 24.726588 14.155294a31.804235 31.804235 0 0 0 39.634824-5.722353 31.412706 31.412706 0 0 0-7.800471-48.188236l-79.631059-46.08-15.269647-56.621176a21.082353 21.082353 0 0 1 26.112-25.901176l58.307765 15.661176 45.417412 78.305882a30.750118 30.750118 0 0 0 27.105882 15.661177 31.503059 31.503059 0 0 0 18.31153-6.02353 32.286118 32.286118 0 0 0 8.131764-42.164705l-13.583059-23.190589 68.818824 18.371765a37.376 37.376 0 0 0 8.131765 0.903529 31.593412 31.593412 0 0 0 31.171764-28.009411 30.780235 30.780235 0 0 0-23.371294-34.334118z m-271.058824-50.296471a36.141176 36.141176 0 1 1-36.141176-36.442353 36.291765 36.291765 0 0 1 36.141176 36.442353z m0 0" fill="#FFFFFF" p-id="4872"></path></svg>